# xmcd
#
# Track frame offsets:
#	150
#	14209
#	30514
#	43043
#	59203
#	72824
#	87440
#	100294
#	119703
#	131960
#	146250
#	162673
#	172969
#	189795
#	207079
#	223364
#	237256
#	248659
#	266914
#	279645
#	305245
#
# Disc length: 4349 seconds
#
# Revision: 1
# Processed by: cddbd v1.5.2PL0 Copyright (c) Steve Scherf et al.
# Submitted via: audiograbber 1.83.01
#
DISCID=5010fb15
DTITLE=Various Artist - Nejlepsi country vyber vsech Dob CD2
DYEAR=1900
DGENRE=
TTITLE0=Vera Martinova
TTITLE1=Waldemar Matuska
TTITLE2=ICE
TTITLE3=DEVATENACT
TTITLE4=TOBE NALEZEL CAS
TTITLE5=JACKSON
TTITLE6=OH RUBY NECHTEJ MI LASKU BRAT
TTITLE7=VIC NEZ PRITEL
TTITLE8=PIVNI DZIP
TTITLE9=CEKEJ TISE
TTITLE10=JA TI ZPIVAM
TTITLE11=VIM VIM
TTITLE12=HRAC
TTITLE13=DIVKA S VLASEM MEDOVYM
TTITLE14=POLE S BAVLNOU
TTITLE15=TOM DOOLEY
TTITLE16=DIGGY LIGGY
TTITLE17=DLOUHY CERNY ZAVOJ
TTITLE18=STROMY
TTITLE19=ORANGE  BLOSSOM SPECIAL
TTITLE20=kARAOKE VERZE Digi Ligi
EXTD=
EXTT0=
EXTT1=
EXTT2=
EXTT3=
EXTT4=
EXTT5=
EXTT6=
EXTT7=
EXTT8=
EXTT9=
EXTT10=
EXTT11=
EXTT12=
EXTT13=
EXTT14=
EXTT15=
EXTT16=
EXTT17=
EXTT18=
EXTT19=
EXTT20=
PLAYORDER=
